<svg width="40" height="40" viewBox="0 0 40 40" fill="none" xmlns="http://www.w3.org/2000/svg">
<path fill-rule="evenodd" clip-rule="evenodd" d="M19.4905 29.0276C17.7279 29.0276 16.2965 27.706 16.2965 26.0782V22.5904C16.2965 20.4365 17.9664 18.5885 20.2591 18.1969C22.2074 17.8665 23.6121 16.2877 23.6121 14.452V12.8977C23.6121 10.7805 21.8097 9.01823 19.5832 8.96928C18.4567 8.94481 17.4097 9.33643 16.6146 10.0585C15.8195 10.7805 15.3821 11.7473 15.3821 12.7754C15.3821 14.403 13.9507 15.7247 12.1882 15.7247C10.4255 15.7247 8.98096 14.403 8.98096 12.7631C8.98096 10.1319 10.1075 7.6598 12.1351 5.82407C14.1761 3.98835 16.8664 2.99705 19.7157 3.05825C25.388 3.16838 30 7.58637 30 12.8855V14.452C30 18.6485 27.0957 22.3135 22.9089 23.6357C22.7765 23.6776 22.6844 23.7994 22.6844 23.9382V26.066C22.6844 27.706 21.2531 29.0276 19.4905 29.0276ZM22.5 34.375C22.5 36.1009 21.1009 37.5 19.375 37.5C17.6491 37.5 16.25 36.1009 16.25 34.375C16.25 32.6491 17.6491 31.25 19.375 31.25C21.1009 31.25 22.5 32.6491 22.5 34.375Z" fill="url(#paint0_linear_1048_533)"/>
<defs>
<linearGradient id="paint0_linear_1048_533" x1="19.4905" y1="3.05557" x2="19.4905" y2="37.5" gradientUnits="userSpaceOnUse">
<stop stop-color="#F8312F"/>
<stop offset="1" stop-color="#FF31EA"/>
</linearGradient>
</defs>
</svg>
