<svg width="36" height="36" viewBox="0 0 36 36" fill="none" xmlns="http://www.w3.org/2000/svg">
<path d="M14.059 2.79239C14.167 1.49665 15.2501 0.5 16.5504 0.5H19.4496C20.7499 0.5 21.833 1.49665 21.941 2.79239L22.2353 6.32337C22.2775 6.82966 22.874 7.07675 23.2619 6.74859L25.9667 4.45986C26.9592 3.61999 28.4299 3.68116 29.3494 4.60056L31.3995 6.6507C32.3189 7.5701 32.38 9.04075 31.5401 10.0333L29.2515 12.7381C28.9233 13.126 29.1704 13.7225 29.6766 13.7648L33.2076 14.059C34.5034 14.167 35.5 15.2501 35.5 16.5504V19.4496C35.5 20.7499 34.5034 21.833 33.2076 21.941L29.6766 22.2353C29.1704 22.2775 28.9233 22.874 29.2515 23.2619L31.5401 25.9666C32.38 26.9593 32.3189 28.4299 31.3995 29.3492L29.3494 31.3995C28.4299 32.3189 26.9592 32.38 25.9667 31.5401L23.2619 29.2514C22.874 28.9233 22.2775 29.1704 22.2353 29.6766L21.941 33.2076C21.833 34.5034 20.7499 35.5 19.4496 35.5H16.5504C15.2501 35.5 14.167 34.5034 14.059 33.2076L13.7648 29.6766C13.7225 29.1704 13.126 28.9233 12.7381 29.2515L10.0333 31.5401C9.04075 32.38 7.5701 32.3189 6.6507 31.3995L4.60056 29.3494C3.68116 28.4299 3.62 26.9592 4.45986 25.9667L6.7486 23.2619C7.07676 22.874 6.82966 22.2775 6.32339 22.2353L2.79239 21.941C1.49665 21.833 0.5 20.7499 0.5 19.4496V16.5504C0.5 15.2501 1.49665 14.167 2.79239 14.059L6.32339 13.7648C6.82966 13.7225 7.07675 13.126 6.7486 12.7381L4.45986 10.0333C3.62 9.04073 3.68116 7.57008 4.60056 6.65067L6.6507 4.60054C7.5701 3.68114 9.04075 3.61996 10.0333 4.45984L12.7381 6.74855C13.126 7.07671 13.7225 6.82961 13.7648 6.32334L14.059 2.79239ZM24.25 18C24.25 14.5483 21.4517 11.75 18 11.75C14.5483 11.75 11.75 14.5483 11.75 18C11.75 21.4517 14.5483 24.25 18 24.25C21.4517 24.25 24.25 21.4517 24.25 18Z" fill="url(#paint0_linear_1803_946)"/>
<defs>
<linearGradient id="paint0_linear_1803_946" x1="18" y1="0.5" x2="18" y2="35.5" gradientUnits="userSpaceOnUse">
<stop stop-color="#B4ACBC"/>
<stop offset="1" stop-color="#998EA4"/>
</linearGradient>
</defs>
</svg>
