<svg width="26" height="19" viewBox="0 0 26 19" fill="none" xmlns="http://www.w3.org/2000/svg">
<path d="M0.200012 1.59999C0.200012 0.937258 0.737276 0.399994 1.40001 0.399994H24.6C25.2627 0.399994 25.8 0.937258 25.8 1.59999C25.8 2.26273 25.2627 2.79999 24.6 2.79999H1.40001C0.737276 2.79999 0.200012 2.26273 0.200012 1.59999ZM0.200012 9.59999C0.200012 8.93726 0.737276 8.39999 1.40001 8.39999H24.6C25.2627 8.39999 25.8 8.93726 25.8 9.59999C25.8 10.2627 25.2627 10.8 24.6 10.8H1.40001C0.737276 10.8 0.200012 10.2627 0.200012 9.59999ZM1.40001 16.4C0.737276 16.4 0.200012 16.9373 0.200012 17.6C0.200012 18.2627 0.737276 18.8 1.40001 18.8H24.6C25.2627 18.8 25.8 18.2627 25.8 17.6C25.8 16.9373 25.2627 16.4 24.6 16.4H1.40001Z" fill="#888888"/>
</svg>
