<svg width="16" height="16" viewBox="0 0 16 16" fill="none" xmlns="http://www.w3.org/2000/svg">
<g clip-path="url(#clip0_2088_1278)">
<path fill-rule="evenodd" clip-rule="evenodd" d="M6.75011 15.904V10.3141H4.71832V8.0011H6.75011V6.2382C6.75011 4.23229 7.94487 3.12527 9.7719 3.12527C10.6472 3.12527 11.5629 3.28165 11.5629 3.28165V5.25043H10.5538C9.55927 5.25043 9.24989 5.86806 9.24989 6.50033V8.0011H11.4684L11.114 10.3141H9.24989V15.904C13.0745 15.304 16 11.9942 16 8.0011C16 3.58282 12.4183 0.00109863 8 0.00109863C3.58172 0.00109863 0 3.58282 0 8.0011C0 11.9942 2.92552 15.304 6.75011 15.904Z" fill="black"/>
</g>
<defs>
<clipPath id="clip0_2088_1278">
<rect width="16" height="16" fill="white"/>
</clipPath>
</defs>
</svg>
