<svg width="25" height="27" viewBox="0 0 25 27" fill="none" xmlns="http://www.w3.org/2000/svg">
<path d="M8.05564 23.3373H15.9444C15.6261 25.2281 13.9813 26.6687 12 26.6687C10.0187 26.6687 8.37382 25.2281 8.05564 23.3373ZM12 0.671875C17.5228 0.671875 22 5.14902 22 10.6719V16.0032L23.8911 20.2167C23.9643 20.3797 24.0021 20.5565 24.0021 20.7353C24.0021 21.4349 23.4351 22.002 22.7355 22.002H1.26958C1.0912 22.002 0.914837 21.9644 0.752024 21.8915C0.11353 21.6056 -0.172363 20.8563 0.113477 20.2177L2.00001 16.0037L2.00014 10.6546L2.00604 10.3214C2.19146 4.94713 6.60784 0.671875 12 0.671875Z" fill="#888888"/>
</svg>
