<svg width="24" height="26" viewBox="0 0 24 26" fill="none" xmlns="http://www.w3.org/2000/svg">
<path d="M10.4041 0.903428C11.3365 0.143275 12.6635 0.143275 13.5959 0.903428L22.3792 8.06438C22.9824 8.55612 23.3333 9.29945 23.3333 10.0853V23.0756C23.3333 24.5066 22.1917 25.6667 20.7833 25.6667H17.3833C15.975 25.6667 14.8333 24.5066 14.8333 23.0756V16.8328C14.8333 16.3558 14.4528 15.969 13.9833 15.969H10.0167C9.54719 15.969 9.16666 16.3558 9.16666 16.8328V23.0756C9.16666 24.5066 8.02499 25.6667 6.61666 25.6667H3.21666C1.80833 25.6667 0.666656 24.5066 0.666656 23.0756V10.0853C0.666656 9.29952 1.01762 8.55612 1.62082 8.06438L10.4041 0.903428Z" fill="#FD3078"/>
</svg>
