<svg width="16" height="16" viewBox="0 0 16 16" fill="none" xmlns="http://www.w3.org/2000/svg">
<g clip-path="url(#clip0_2088_1270)">
<path d="M3.00322 0.725024C2.49697 0.921899 2.06885 1.1844 1.64072 1.61252C1.2126 2.03752 0.950098 2.46877 0.753223 2.9719C0.562598 3.4594 0.434473 4.01877 0.396973 4.83752C0.359473 5.65627 0.350098 5.91877 0.350098 8.00627C0.350098 10.0938 0.359473 10.3563 0.396973 11.175C0.434473 11.9938 0.565723 12.5531 0.753223 13.0406C0.950098 13.5469 1.2126 13.975 1.64072 14.4031C2.06885 14.8313 2.49697 15.0938 3.00322 15.2906C3.49072 15.4813 4.0501 15.6094 4.86885 15.6469C5.6876 15.6844 5.9501 15.6938 8.0376 15.6938C10.1251 15.6938 10.3876 15.6844 11.2063 15.6469C12.0251 15.6094 12.5845 15.4781 13.072 15.2906C13.5782 15.0938 14.0063 14.8313 14.4345 14.4031C14.8626 13.975 15.1251 13.5469 15.322 13.0406C15.5126 12.5531 15.6407 11.9938 15.6782 11.175C15.7157 10.3563 15.7251 10.0938 15.7251 8.00627C15.7251 5.91877 15.7157 5.65627 15.6782 4.83752C15.6407 4.01877 15.5095 3.4594 15.322 2.9719C15.1251 2.46877 14.8626 2.03752 14.4376 1.61252C14.0095 1.1844 13.5813 0.921899 13.0751 0.725024C12.5876 0.534399 12.0282 0.406274 11.2095 0.368774C10.3907 0.331274 10.1282 0.321899 8.04072 0.321899C5.95322 0.321899 5.69072 0.331274 4.87197 0.368774C4.0501 0.403149 3.49072 0.534399 3.00322 0.725024ZM11.1438 1.75002C11.8938 1.7844 12.3001 1.9094 12.572 2.01565C12.9313 2.15627 13.1876 2.3219 13.4563 2.59065C13.7251 2.8594 13.8907 3.11565 14.0313 3.47502C14.1376 3.7469 14.2626 4.15315 14.297 4.90315C14.3345 5.71252 14.3407 5.95627 14.3407 8.0094C14.3407 10.0625 14.3313 10.3063 14.297 11.1157C14.2626 11.8657 14.1376 12.2719 14.0313 12.5438C13.8907 12.9031 13.7251 13.1594 13.4563 13.4282C13.1876 13.6969 12.9313 13.8625 12.572 14.0031C12.3001 14.1094 11.8938 14.2344 11.1438 14.2688C10.3345 14.3063 10.0907 14.3125 8.0376 14.3125C5.98447 14.3125 5.74072 14.3032 4.93135 14.2688C4.18135 14.2344 3.7751 14.1094 3.50322 14.0031C3.14385 13.8625 2.8876 13.6969 2.61885 13.4282C2.3501 13.1594 2.18447 12.9031 2.04385 12.5438C1.9376 12.2719 1.8126 11.8657 1.77822 11.1157C1.74072 10.3063 1.73447 10.0625 1.73447 8.0094C1.73447 5.95627 1.74385 5.71252 1.77822 4.90315C1.8126 4.15315 1.9376 3.7469 2.04385 3.47502C2.18447 3.11565 2.3501 2.8594 2.61885 2.59065C2.8876 2.3219 3.14385 2.15627 3.50322 2.01565C3.7751 1.9094 4.18135 1.7844 4.93135 1.75002C5.74072 1.71252 5.98447 1.70627 8.0376 1.70627C10.0907 1.70627 10.3345 1.71252 11.1438 1.75002Z" fill="black"/>
<path d="M4.09082 8.00937C4.09082 10.1906 5.85957 11.9563 8.0377 11.9563C10.2158 11.9563 11.9846 10.1875 11.9846 8.00937C11.9846 5.83125 10.2189 4.0625 8.0377 4.0625C5.85645 4.0625 4.09082 5.82812 4.09082 8.00937ZM10.6002 8.00937C10.6002 9.425 9.45332 10.5719 8.0377 10.5719C6.62207 10.5719 5.4752 9.425 5.4752 8.00937C5.4752 6.59375 6.62207 5.44688 8.0377 5.44688C9.45332 5.44688 10.6002 6.59375 10.6002 8.00937Z" fill="black"/>
<path d="M12.1438 4.82812C12.6529 4.82812 13.0657 4.41539 13.0657 3.90625C13.0657 3.39711 12.6529 2.98438 12.1438 2.98438C11.6347 2.98438 11.2219 3.39711 11.2219 3.90625C11.2219 4.41539 11.6347 4.82812 12.1438 4.82812Z" fill="black"/>
</g>
<defs>
<clipPath id="clip0_2088_1270">
<rect width="16" height="16" fill="white"/>
</clipPath>
</defs>
</svg>
