<svg width="24" height="24" viewBox="0 0 24 24" fill="none" xmlns="http://www.w3.org/2000/svg">
<path d="M15.3001 21C15.7971 21 16.2001 20.597 16.2001 20.1C16.2001 19.603 15.7971 19.2 15.3001 19.2H7.8001C6.47461 19.2 5.4001 18.1255 5.4001 16.8V7.2C5.4001 5.87452 6.47461 4.8 7.8001 4.8H15.3001C15.7971 4.8 16.2001 4.39705 16.2001 3.9C16.2001 3.40295 15.7971 3 15.3001 3H7.8001C5.4805 3 3.6001 4.8804 3.6001 7.2V16.8C3.6001 19.1196 5.4805 21 7.8001 21H15.3001ZM16.4897 7.43868C16.8549 7.10154 17.4242 7.12432 17.7614 7.48955L21.3614 11.3895C21.6797 11.7343 21.6797 12.2657 21.3614 12.6104L17.7614 16.5104C17.4242 16.8757 16.8549 16.8985 16.4897 16.5613C16.1244 16.2242 16.1016 15.6548 16.4388 15.2896L18.6445 12.9H9.3001C8.80305 12.9 8.4001 12.497 8.4001 12C8.4001 11.5029 8.80305 11.1 9.3001 11.1H18.6445L16.4388 8.71045C16.1016 8.34522 16.1244 7.77582 16.4897 7.43868Z" fill="#212121"/>
</svg>
