<svg width="86" height="22" viewBox="0 0 86 22" fill="none" xmlns="http://www.w3.org/2000/svg">
<path d="M18.2614 22C18.5373 22 18.7844 21.8369 18.8822 21.5903L22.3747 12.7815C22.5393 12.3663 22.2184 11.922 21.7539 11.922H4.15695C3.8811 11.922 3.63399 12.0851 3.53622 12.3317L0.0437033 21.1405C-0.120924 21.5557 0.19995 22 0.664433 22H18.2614Z" fill="url(#paint0_linear_1_194)"/>
<path d="M18.2614 0.634615C18.5373 0.634615 18.7844 0.797707 18.8822 1.0443L22.3747 9.85308C22.5393 10.2683 22.2184 10.7126 21.7539 10.7126H4.15695C3.8811 10.7126 3.63399 10.5495 3.53622 10.3029L0.0437032 1.49416C-0.120924 1.07894 0.19995 0.634615 0.664433 0.634615H18.2614Z" fill="url(#paint1_linear_1_194)"/>
<path d="M33.4945 17.2128C34.6626 17.2128 35.7446 16.9382 36.7403 16.3891C37.7361 15.8216 38.5308 15.0619 39.1245 14.1101C39.7181 13.1582 40.0149 12.124 40.0149 11.0073C40.0149 9.89072 39.7181 8.85648 39.1245 7.90461C38.5308 6.95274 37.7361 6.20223 36.7403 5.65307C35.7446 5.08561 34.6626 4.80188 33.4945 4.80188H30.6507V17.2128H33.4945ZM33.5806 0.600842C35.5339 0.600842 37.3436 1.06762 39.0096 2.00119C40.6756 2.93475 41.9969 4.19781 42.9736 5.79036C43.9502 7.38291 44.4385 9.1219 44.4385 11.0073C44.4385 12.8928 43.9502 14.6318 42.9736 16.2243C41.9969 17.8169 40.6756 19.0799 39.0096 20.0135C37.3436 20.9471 35.5339 21.4138 33.5806 21.4138H26.2559V0.600842H33.5806Z" fill="white"/>
<path d="M67.4856 21.4138H62.8896L60.7065 16.3341H51.2561L49.0731 21.4138H44.4771L53.5541 0.600842H58.4086L67.4856 21.4138ZM58.8969 12.2155L56.1106 5.59816L53.0945 12.2155H58.8969Z" fill="white"/>
<path d="M78.9898 21.8806C77.7642 22.0637 76.5769 22.0362 75.4279 21.7982C74.2981 21.5786 73.1491 21.1667 71.981 20.5626C70.9469 19.9952 70.1043 19.327 69.4532 18.5582C68.8021 17.7894 68.3616 17.103 68.1319 16.4989L72.1533 15.0711C72.2491 15.3274 72.4501 15.6202 72.7565 15.9497C73.0629 16.2792 73.4842 16.5904 74.0204 16.8833C74.8821 17.3226 75.6386 17.6064 76.2896 17.7345C76.9407 17.8443 77.6971 17.8352 78.5589 17.707C78.8078 17.6521 79.0855 17.5789 79.3919 17.4874C79.7175 17.3958 80.0334 17.286 80.3398 17.1579C80.6462 17.0114 80.8952 16.8558 81.0867 16.6911C81.2782 16.508 81.4218 16.325 81.5175 16.1419C81.6707 15.8857 81.7282 15.5928 81.6899 15.2633C81.6516 14.9338 81.5175 14.6501 81.2877 14.4121C81.0771 14.2107 80.6462 14.0002 79.9951 13.7806C79.3632 13.5609 78.3004 13.268 76.8067 12.9019L75.2268 12.5175C74.0396 12.2246 73.0533 11.8311 72.2682 11.3368C71.8661 11.0806 71.5022 10.8151 71.1767 10.5406C70.8703 10.2477 70.6596 10.028 70.5447 9.88157C69.9319 9.13106 69.5298 8.18834 69.3383 7.05342C69.1659 5.9185 69.2617 4.93002 69.6255 4.08798C70.0851 2.93475 70.8415 2.01949 71.8948 1.3422C72.9672 0.646604 74.1066 0.225584 75.313 0.0791425C76.4045 -0.0489932 77.5823 -0.0215353 78.8461 0.161516C80.11 0.344568 81.3165 0.747282 82.4654 1.36966C83.4038 1.84559 84.1602 2.3856 84.7347 2.98967L81.4601 5.73544C81.2494 5.51578 80.8952 5.28697 80.3973 5.049C79.6504 4.64629 78.894 4.39001 78.128 4.28018C77.3812 4.15205 76.6248 4.12459 75.8588 4.19781C75.3034 4.27103 74.8343 4.42662 74.4513 4.66459C74.0683 4.88425 73.8002 5.2229 73.647 5.68053C73.5704 5.90019 73.5417 6.14731 73.5608 6.42189C73.5991 6.69647 73.7236 6.97105 73.9342 7.24562C74.2023 7.57512 74.4704 7.80393 74.7385 7.93207C74.9109 8.02359 75.1119 8.10597 75.3417 8.17919C75.5715 8.25241 75.8779 8.33478 76.2609 8.42631C76.2609 8.44461 76.2801 8.45377 76.3184 8.45377L77.8121 8.83817C79.6504 9.31411 81.0484 9.76258 82.0058 10.1836C82.9825 10.6046 83.7485 11.0439 84.3038 11.5016C84.8017 11.9226 85.2039 12.4534 85.5103 13.0941C85.8358 13.7348 85.9986 14.4487 85.9986 15.2358C86.0177 16.023 85.8454 16.8192 85.4815 17.6247C85.1943 18.2653 84.773 18.8786 84.2176 19.4643C83.6814 20.0501 83.0112 20.5352 82.2069 20.9196C81.6324 21.1576 81.0675 21.3589 80.5122 21.5237C79.9568 21.7067 79.4494 21.8257 78.9898 21.8806Z" fill="white"/>
<defs>
<linearGradient id="paint0_linear_1_194" x1="41.2342" y1="0.340207" x2="70.0636" y2="36.4716" gradientUnits="userSpaceOnUse">
<stop stop-color="#FD3078"/>
<stop offset="1" stop-color="#E42A9A"/>
</linearGradient>
<linearGradient id="paint1_linear_1_194" x1="41.2342" y1="0.340207" x2="70.0636" y2="36.4716" gradientUnits="userSpaceOnUse">
<stop stop-color="#FD3078"/>
<stop offset="1" stop-color="#E42A9A"/>
</linearGradient>
</defs>
</svg>
