<svg width="180" height="180" viewBox="0 0 180 180" fill="none" xmlns="http://www.w3.org/2000/svg">
<path d="M21.0879 14.2693C19.205 12.3864 16.1523 12.3864 14.2694 14.2693C12.3865 16.1522 12.3864 19.2049 14.2694 21.0878L41.639 48.4579C37.6226 56.0655 35.3488 64.7357 35.3488 73.9369L35.3439 100.363L26.24 123.791L25.9746 124.59C24.8634 128.61 26.9557 132.898 30.9265 134.443C31.8774 134.812 32.8887 135.002 33.909 135.002H128.182L158.91 165.732C160.793 167.615 163.846 167.615 165.729 165.732C167.612 163.849 167.612 160.796 165.729 158.913L21.0879 14.2693ZM53.6135 33.1589L152.437 131.984C153.599 130.565 154.296 128.751 154.296 126.773L154.234 125.76C154.15 125.089 153.984 124.43 153.739 123.797L144.649 100.369L144.651 73.9369H144.626V72.2963C143.759 42.8721 119.634 19.2858 89.9994 19.2858C76.0256 19.2858 63.2765 24.5305 53.6135 33.1589ZM112.279 141.444C110.716 152.349 101.337 160.73 89.9994 160.73C78.6626 160.73 69.2833 152.349 67.7205 141.444H112.279Z" fill="#E6E6E6"/>
</svg>
