<svg width="24" height="24" viewBox="0 0 24 24" fill="none" xmlns="http://www.w3.org/2000/svg">
<path d="M9.66667 0C4.32793 0 0 4.32793 0 9.66667C0 15.0054 4.32793 19.3333 9.66667 19.3333C11.9759 19.3333 14.0959 18.5237 15.7585 17.1727L22.2927 23.7068C22.6831 24.0973 23.3163 24.0973 23.7069 23.7068C24.0974 23.3163 24.0974 22.6831 23.7069 22.2926L17.1727 15.7585C18.5237 14.0959 19.3333 11.9759 19.3333 9.66667C19.3333 4.32793 15.0054 0 9.66667 0ZM2 9.66667C2 5.43247 5.43247 2 9.66667 2C13.9009 2 17.3333 5.43247 17.3333 9.66667C17.3333 13.9009 13.9009 17.3333 9.66667 17.3333C5.43247 17.3333 2 13.9009 2 9.66667Z" fill="#888888"/>
</svg>
