<svg width="25" height="27" viewBox="0 0 25 27" fill="none" xmlns="http://www.w3.org/2000/svg">
<path d="M8.05572 23.3373H15.9445C15.6262 25.2281 13.9814 26.6687 12.0001 26.6687C10.0187 26.6687 8.37391 25.2281 8.05572 23.3373ZM12.0001 0.671875C17.5229 0.671875 22.0001 5.14902 22.0001 10.6719V16.0032L23.8911 20.2167C23.9643 20.3797 24.0022 20.5565 24.0022 20.7353C24.0022 21.4349 23.4351 22.002 22.7355 22.002H1.26967C1.09128 22.002 0.914921 21.9644 0.752108 21.8915C0.113614 21.6056 -0.172279 20.8563 0.113561 20.2177L2.00009 16.0037L2.00023 10.6546L2.00612 10.3214C2.19155 4.94713 6.60792 0.671875 12.0001 0.671875Z" fill="white"/>
</svg>
